<?xml version="1.0" standalone="no"?>
<!DOCTYPE svg PUBLIC "-//W3C//DTD SVG 20010904//EN"
 "http://www.w3.org/TR/2001/REC-SVG-20010904/DTD/svg10.dtd">
<svg version="1.0" xmlns="http://www.w3.org/2000/svg"
 width="260.000000pt" height="260.000000pt" viewBox="0 0 260.000000 260.000000"
 preserveAspectRatio="xMidYMid meet">
<metadata>
Created by potrace 1.14, written by Peter Selinger 2001-2017
</metadata>
<g transform="translate(0.000000,260.000000) scale(0.100000,-0.100000)"
fill="#000000" stroke="none">
<path d="M1191 2579 c-30 -5 -56 -10 -57 -12 -3 -3 14 -219 26 -326 5 -52 8
-96 5 -99 -3 -3 -15 4 -28 15 -12 12 -54 37 -94 57 l-72 36 -153 -7 c-186 -7
-200 -13 -311 -126 l-78 -81 -40 -141 c-22 -77 -44 -154 -49 -171 -6 -18 -13
-56 -16 -85 -3 -30 -12 -117 -20 -194 -25 -234 -20 -371 22 -563 42 -193 84
-299 158 -397 112 -149 126 -160 336 -265 108 -54 215 -103 238 -110 37 -9 41
-13 32 -30 -5 -10 -10 -26 -10 -36 0 -14 2 -15 17 -3 9 8 19 13 22 12 3 -2 6
7 6 20 0 20 4 22 55 18 65 -4 70 -6 70 -31 0 -10 5 -22 11 -26 7 -4 9 2 7 16
-3 20 5 26 67 47 154 54 289 106 370 143 74 35 91 48 132 101 57 73 113 163
149 239 14 30 51 106 81 168 30 62 56 123 57 136 0 13 4 22 8 20 3 -2 12 12
18 31 6 19 16 35 21 35 5 0 9 8 9 19 0 23 39 121 57 142 7 9 11 18 8 21 -3 3
6 32 21 64 15 33 31 69 37 81 15 32 15 482 1 491 -11 7 -54 101 -69 152 -12
40 -89 142 -136 180 -24 19 -97 56 -164 83 l-120 49 -128 -6 c-123 -6 -172
-17 -349 -75 -20 -7 -28 -6 -29 2 0 7 -2 20 -4 29 -6 34 -14 95 -21 169 -5 62
-3 83 10 110 10 19 19 51 21 72 4 37 4 37 -33 36 -20 -1 -61 -5 -91 -10z m889
-1563 c0 -3 -4 -8 -10 -11 -5 -3 -10 -1 -10 4 0 6 5 11 10 11 6 0 10 -2 10 -4z
m80 -18 c0 -11 -38 -10 -44 1 -3 5 5 8 19 7 14 0 25 -4 25 -8z m-96 -16 c2 -4
0 -14 -6 -22 -8 -12 -9 -12 -5 2 3 9 1 19 -6 22 -9 3 -9 5 0 5 6 1 14 -3 17
-7z m-8 -218 c-4 -9 -9 -15 -11 -12 -3 3 -3 13 1 22 4 9 9 15 11 12 3 -3 3
-13 -1 -22z"/>
<path d="M1160 48 c0 -12 3 -18 7 -14 11 10 12 36 2 36 -5 0 -9 -10 -9 -22z"/>
<path d="M1198 45 c2 -14 8 -25 12 -25 4 0 5 11 2 25 -2 14 -8 25 -12 25 -4 0
-5 -11 -2 -25z"/>
</g>
</svg>
